<?xml version="1.0" encoding="UTF-8"?>
<svg id="_레이어_2" data-name="레이어 2" xmlns="http://www.w3.org/2000/svg" viewBox="0 0 77.18 84.84">
  <defs>
    <style>
      .cls-1 {
        fill: #ded0e1;
      }
    </style>
  </defs>
  <g id="_레이어_1-2" data-name="레이어 1">
    <path class="cls-1" d="M77.18,9.33c0,1.69-.56,3.23-1.67,4.61-1.11,1.38-2.48,2.57-4.09,3.57-1.61,1-3.34,1.75-5.18,2.25-1.84.5-3.5.75-4.95.75-2.23,0-4.65-.42-7.26-1.27-2.61-.84-5.53-2.11-8.76-3.8-2,2.53-3.38,5.11-4.15,7.72-.77,2.61-1.38,5.76-1.84,9.45-.08.23-.23.27-.46.12-.23-.15-.46-.4-.69-.75l-.69-1.04c-.23-.35-.35-.56-.35-.63.31-1.3.75-2.71,1.33-4.21.58-1.5,1.21-2.94,1.9-4.32.69-1.38,1.4-2.69,2.13-3.92.73-1.23,1.4-2.19,2.02-2.88-2.07-1.08-4.36-2.28-6.85-3.63-2.5-1.34-5.05-2.61-7.66-3.8-2.61-1.19-5.18-2.19-7.72-3-2.54-.81-4.88-1.21-7.03-1.21-1.54,0-2.76.1-3.69.29-.92.19-1.92.6-3,1.21-1.31.85-2.36,1.84-3.17,3s-1.21,2.84-1.21,5.07c0,2,.46,3.78,1.38,5.36.92,1.58,2.38,2.67,4.38,3.28-.23.15-.75.31-1.55.46-.81.15-1.52.23-2.13.23-2.23,0-3.82-.69-4.78-2.07-.96-1.38-1.44-3.11-1.44-5.18,0-1.84.71-3.78,2.13-5.82,1.42-2.03,3.51-3.78,6.28-5.24,2.3-1.23,4.78-2.19,7.43-2.88,2.65-.69,5.01-1.04,7.08-1.04s4.26.42,6.57,1.27c2.3.85,4.55,1.84,6.74,3,2.19,1.15,4.28,2.34,6.28,3.57,2,1.23,3.72,2.27,5.18,3.11,2-2.69,4.63-4.95,7.89-6.8,3.26-1.84,6.74-2.76,10.43-2.76,3,0,5.61.73,7.83,2.19,2.23,1.46,3.34,3.38,3.34,5.76ZM65.32,41.93c0,4.15-.94,7.85-2.82,11.12-1.88,3.27-4.46,6.15-7.72,8.64-3.27,2.49-7.07,4.68-11.41,6.57-4.34,1.88-9,3.51-14,4.9-1.69.46-3.05,1.02-4.09,1.67-1.04.65-1.84,1.44-2.42,2.36-.58.92-1.02,1.98-1.33,3.17-.31,1.19-.58,2.59-.81,4.21-.31.38-.54.38-.69,0,.84-8.37,2.46-16.28,4.84-23.73,2.38-7.45,5.95-14.67,10.71-21.66l-4.03,1.5c-.08-1.3-.27-2.71-.58-4.21-.31-1.5-.86-2.9-1.67-4.2-.81-1.31-1.9-2.4-3.28-3.28-1.38-.88-3.11-1.33-5.18-1.33-1.92,0-3.74.35-5.47,1.04-1.73.69-3.23,1.69-4.49,3-1.27,1.31-2.27,2.9-3,4.78-.73,1.88-1.09,4.05-1.09,6.51,0,3.23.46,6.45,1.38,9.68s2.26,6.49,4.03,9.79c1.54,3,2.78,5.72,3.74,8.18.96,2.46,1.44,4.91,1.44,7.37,0,.92-.06,1.82-.17,2.71-.12.88-.33,2.05-.63,3.51-.31.61-.58.65-.81.12.08-.39.15-.79.23-1.21.08-.42.12-.86.12-1.33,0-1.31-.56-3.15-1.67-5.53-1.11-2.38-2.98-5.95-5.59-10.71-1.46-2.69-2.63-4.92-3.51-6.68-.88-1.77-1.56-3.32-2.02-4.67-.46-1.34-.77-2.61-.92-3.8-.16-1.19-.23-2.51-.23-3.97,0-2.53.58-5.01,1.73-7.43,1.15-2.42,2.71-4.59,4.67-6.51,1.96-1.92,4.24-3.47,6.85-4.67,2.61-1.19,5.41-1.79,8.41-1.79,2.07,0,3.86.35,5.36,1.04,1.5.69,2.74,1.61,3.74,2.76,1,1.15,1.79,2.48,2.36,3.97.58,1.5,1.02,3.01,1.32,4.55,2.07-2.46,4.38-4.49,6.91-6.11,2.53-1.61,5.41-2.42,8.64-2.42,1.84,0,3.57.31,5.18.92,1.61.62,3.01,1.48,4.2,2.59,1.19,1.11,2.11,2.4,2.77,3.86.65,1.46.98,3.04.98,4.72ZM76.38,9.33c0-2-.96-3.53-2.88-4.61-1.92-1.07-4.34-1.61-7.26-1.61-7.3,0-13.21,2.77-17.74,8.29,2.46,1.38,5.24,2.67,8.35,3.86,3.11,1.19,6.05,1.79,8.81,1.79,3.46,0,6.11-.77,7.95-2.3,1.84-1.54,2.76-3.34,2.76-5.41Z"/>
  </g>
</svg>