<?xml version="1.0" encoding="UTF-8"?>
<svg id="_레이어_2" data-name="레이어 2" xmlns="http://www.w3.org/2000/svg" viewBox="0 0 90.09 75">
  <defs>
    <style>
      .cls-1 {
        fill: #fff;
      }
    </style>
  </defs>
  <g id="_레이어_1-2" data-name="레이어 1">
    <path class="cls-1" d="M90.09,13.25c0,1.84-.56,3.4-1.67,4.67-1.11,1.27-3.05,2.67-5.82,4.2-2.46,1.31-4.42,2.71-5.88,4.21-1.46,1.5-2.19,2.82-2.19,3.97,0,.85.29,1.38.86,1.61s1.71.42,3.4.58c2,.15,3.61.69,4.84,1.61s1.84,2.11,1.84,3.57c0,1.77-.48,3.21-1.44,4.32-.96,1.11-2.15,2-3.57,2.65-1.42.65-2.96,1.09-4.61,1.33-1.65.23-3.17.35-4.55.35-.92,0-2.06.04-3.4.12-1.34.08-2.63.25-3.86.52-1.23.27-2.29.67-3.17,1.21-.88.54-1.32,1.27-1.32,2.19,0,1.46,1.57,2.42,4.72,2.88,2.92.39,4.38,1.92,4.38,4.61,0,1.84-.71,3.44-2.13,4.78-1.42,1.34-3.25,2.02-5.47,2.02-1.31,0-2.63-.21-3.97-.63-1.34-.42-2.71-.86-4.09-1.32-1.38-.46-2.75-.9-4.09-1.33-1.34-.42-2.63-.63-3.86-.63-.38,0-.94.21-1.67.63-.73.42-1.09.82-1.09,1.21s.33.86.98,1.44c.65.58,1.38,1.23,2.19,1.96.81.73,1.54,1.5,2.19,2.3.65.81.98,1.56.98,2.25,0,1.46-.56,2.57-1.67,3.34-1.11.77-2.59,1.15-4.44,1.15-2.07,0-3.97-.29-5.7-.86-1.73-.58-3.38-1.21-4.95-1.9-1.58-.69-3.07-1.33-4.49-1.9-1.42-.58-2.86-.86-4.32-.86-1.23,0-2.38.13-3.46.4-1.08.27-2.13.54-3.17.81-1.04.27-2.11.54-3.23.81-1.11.27-2.32.4-3.63.4-2.84,0-5.09-.69-6.74-2.07-1.65-1.38-2.48-3.23-2.48-5.53,0-.62.08-1.29.23-2.02.15-.73.42-1.4.81-2.02-.62-.61-1-1.27-1.15-1.96-.16-.69-.23-1.42-.23-2.19,0-1.15.19-2.09.58-2.82.38-.73.69-1.09.92-1.09.31,0,.69.08,1.15.23.84-1,1.69-1.77,2.53-2.3.84-.54,1.84-.81,3-.81,1.54,0,2.82.54,3.86,1.61,1.04,1.08,1.56,2.38,1.56,3.92,0,.85-.27,1.75-.81,2.71-.54.96-1.5,1.9-2.88,2.82.08.15.13.31.17.46.04.15.06.35.06.58,0,.46-.4.82-1.21,1.09-.81.27-1.48.4-2.02.4s-1.21-.08-2.02-.23c-.81-.16-1.67-.62-2.59-1.38-.15.15-.37.58-.63,1.27-.27.69-.4,1.34-.4,1.96,0,1.84.75,3.38,2.25,4.61,1.5,1.23,3.51,1.84,6.05,1.84,2.23,0,4.65-.54,7.26-1.61,2.61-1.08,5.28-2.46,8.01-4.15,2.73-1.69,5.43-3.63,8.12-5.82,2.69-2.19,5.24-4.38,7.66-6.57,2.42-2.19,4.67-4.32,6.74-6.39,2.07-2.07,3.8-3.88,5.18-5.42,3.69-3.92,7.43-7.87,11.23-11.87,3.8-3.99,7.39-8.06,10.77-12.21,2-2.53,3.97-4.82,5.93-6.85,1.96-2.03,4.28-3.13,6.97-3.28-.92-1.77-2.06-3.07-3.4-3.92-1.34-.84-2.71-1.27-4.09-1.27-1.69,0-3.21.42-4.55,1.27-1.34.85-2.53,2-3.57,3.46-1.04,1.46-1.96,3.11-2.76,4.95s-1.56,3.76-2.25,5.76c-1,2.92-2.34,4.38-4.03,4.38-1.15,0-2.07-.61-2.76-1.84-.69-1.23-1.36-2.59-2.02-4.09-.65-1.5-1.36-2.86-2.13-4.09-.77-1.23-1.81-1.84-3.11-1.84-1.69,0-3,1.23-3.92,3.69-.46,1.15-.83,2.82-1.09,5.01-.27,2.19-.58,4.34-.92,6.45-.35,2.11-.83,3.96-1.44,5.53-.62,1.57-1.54,2.36-2.76,2.36s-2.06-.54-2.48-1.61c-.42-1.07-.73-2.25-.92-3.51-.19-1.27-.44-2.42-.75-3.46-.31-1.04-1.04-1.56-2.19-1.56-1.08,0-2,.62-2.76,1.84-.77,1.23-1.15,3.19-1.15,5.88,0,2.92.12,5.47.35,7.66.23,2.19.35,4.28.35,6.28,0,1.69-.25,3.02-.75,3.97-.5.96-1.13,1.44-1.9,1.44s-1.4-.42-1.9-1.27c-.5-.84-.98-1.75-1.44-2.71-.46-.96-.94-1.86-1.44-2.71-.5-.84-1.09-1.27-1.79-1.27-.92,0-1.69.5-2.3,1.5-.62,1-.92,2.61-.92,4.84,0,1.92.17,3.8.52,5.65.34,1.84.52,3.69.52,5.53s-.4,3.26-1.21,4.49c-.81,1.23-2.13,2.61-3.97,4.15-.38.15-.58.04-.58-.35,1.15-1,1.94-1.92,2.36-2.76.42-.85.63-2.23.63-4.15,0-1.46-.1-2.86-.29-4.2-.19-1.34-.29-2.75-.29-4.21,0-3.15.54-5.84,1.61-8.06,1.07-2.23,2.34-3.34,3.8-3.34.92,0,1.67.42,2.25,1.27.58.85,1.09,1.77,1.56,2.76.46,1,.9,1.92,1.32,2.76.42.85.9,1.27,1.44,1.27.84,0,1.27-.73,1.27-2.19,0-.77-.1-1.71-.29-2.82-.19-1.11-.4-2.28-.63-3.51-.23-1.23-.44-2.44-.63-3.63-.19-1.19-.29-2.21-.29-3.05,0-1.31.17-2.67.52-4.09.35-1.42.81-2.71,1.38-3.86.58-1.15,1.25-2.11,2.02-2.88s1.61-1.15,2.53-1.15c1.46,0,2.44.54,2.94,1.61.5,1.08.84,2.25,1.04,3.51.19,1.27.38,2.44.58,3.51.19,1.08.75,1.61,1.67,1.61,1,0,1.71-1.05,2.13-3.17.42-2.11.63-5.16.63-9.16,0-3.07.59-5.64,1.79-7.72,1.19-2.07,2.97-3.11,5.36-3.11,1.61,0,2.88.62,3.8,1.84.92,1.23,1.71,2.59,2.36,4.09.65,1.5,1.29,2.86,1.9,4.09.61,1.23,1.38,1.84,2.3,1.84,1,0,1.75-.5,2.25-1.5.5-1,.94-2.26,1.33-3.8.38-1.54.79-3.19,1.21-4.95.42-1.77,1.04-3.42,1.84-4.95.81-1.54,1.92-2.8,3.34-3.8,1.42-1,3.28-1.5,5.59-1.5,1.61,0,3.13.37,4.55,1.09,1.42.73,2.69,1.69,3.8,2.88,1.11,1.19,1.98,2.59,2.59,4.2.61,1.61.92,3.3.92,5.07ZM12.56,54.95c0-1.15-.44-2.21-1.32-3.17-.88-.96-1.9-1.44-3.05-1.44-2,0-3.69,1-5.07,3,.54.85,1.38,1.88,2.53,3.11,1.15,1.23,2.3,2.34,3.46,3.34,1.23-.61,2.11-1.38,2.65-2.3.54-.92.81-1.77.81-2.53Z"/>
  </g>
</svg>