<?xml version="1.0" encoding="UTF-8"?>
<svg id="_레이어_2" data-name="레이어 2" xmlns="http://www.w3.org/2000/svg" viewBox="0 0 100.8 96.11">
  <defs>
    <style>
      .cls-1 {
        fill: #868065;
      }
    </style>
  </defs>
  <g id="_레이어_1-2" data-name="레이어 1">
    <path class="cls-1" d="M100.8,77.07c0,2.07-.5,3.7-1.5,4.9-1,1.19-2.23,1.79-3.69,1.79-1.15,0-2.48-.29-3.97-.86s-3.28-1.36-5.36-2.36c1,.77,1.94,1.63,2.82,2.59.88.96,1.65,1.9,2.3,2.82.65.92,1.17,1.82,1.56,2.71.38.88.58,1.59.58,2.13,0,.38-.33,1.13-.98,2.25-.65,1.11-1.33,2.09-2.02,2.94-.15.15-.29.19-.4.12-.11-.08-.13-.19-.06-.35.38-.46.58-1.04.58-1.73,0-1.61-.44-3.48-1.32-5.59-.88-2.11-1.98-3.86-3.28-5.24-.69-.77-1.38-1.5-2.07-2.19-.69-.69-1.59-1.48-2.71-2.36-1.11-.88-2.5-1.9-4.15-3.05-1.65-1.15-3.74-2.57-6.28-4.26-1.38.85-2.4,2.23-3.05,4.15-.65,1.92-1.21,3.97-1.67,6.16-.46,2.19-.96,4.3-1.5,6.34-.54,2.03-1.38,3.59-2.53,4.67-1,.84-2.19,1.59-3.57,2.25-1.38.65-2.84.98-4.38.98-1.92,0-3.69-.42-5.3-1.27-1.61-.85-3.01-1.92-4.21-3.23-1.19-1.31-2.11-2.76-2.76-4.38-.65-1.61-.98-3.19-.98-4.72,0-4.07,1.13-7.03,3.4-8.87,2.26-1.84,5.36-2.76,9.27-2.76,1.77,0,3.76.25,5.99.75,2.23.5,4.3.75,6.22.75.84,0,1.61-.1,2.3-.29.69-.19,1.34-.59,1.96-1.21-3.92-2.69-7.85-5.61-11.81-8.76-3.96-3.15-7.78-6.34-11.46-9.56-.85,1.15-1.69,2.57-2.53,4.26-.85,1.69-1.67,3.38-2.48,5.07-.81,1.69-1.59,3.28-2.36,4.78-.77,1.5-1.54,2.67-2.3,3.51-1.54,1.69-3.09,3-4.67,3.92-1.58.92-3.36,1.38-5.36,1.38s-3.74-.44-5.47-1.32c-1.73-.88-3.23-2.03-4.49-3.46-1.27-1.42-2.27-3.05-3-4.9-.73-1.84-1.09-3.72-1.09-5.64,0-3.92,1.13-6.81,3.4-8.7,2.26-1.88,5.16-2.82,8.7-2.82,1.61,0,3.19.19,4.72.58,1.54.39,3.01.79,4.44,1.21,1.42.42,2.8.83,4.15,1.21,1.34.39,2.63.58,3.86.58h2.07c.61,0,1.11-.08,1.5-.23-2.76-2.53-5.4-5.11-7.89-7.72-2.5-2.61-4.97-5.41-7.43-8.41-.46-.61-.88-1.11-1.27-1.5-.38-.38-.92-.73-1.61-1.04-.69-.31-1.61-.63-2.77-.98-1.15-.35-2.76-.79-4.84-1.32-2.23-.61-4.53-1.4-6.91-2.36-2.38-.96-4.55-2.19-6.51-3.69s-3.55-3.26-4.78-5.3c-1.23-2.03-1.84-4.4-1.84-7.08,0-1.23.23-2.38.69-3.46.46-1.07,1.02-2.05,1.67-2.94.65-.88,1.36-1.65,2.13-2.3.77-.65,1.42-1.13,1.96-1.44,1.07-.61,2.28-1.13,3.63-1.56,1.34-.42,2.75-.63,4.21-.63,3.61,0,6.53.83,8.75,2.48,2.23,1.65,3.76,3.44,4.61,5.36.38,1,.71,2.21.98,3.63.27,1.42.4,2.98.4,4.67,0,1.15-.04,2.42-.12,3.8-.08,1.38-.12,2.5-.12,3.34,0,.77.02,1.67.06,2.71.04,1.04.12,2.07.23,3.11s.33,2.04.63,3c.31.96.69,1.75,1.15,2.36,2.23,2.76,4.76,5.63,7.6,8.58,2.84,2.96,5.61,5.59,8.29,7.89.61-.46,1-1.15,1.15-2.07.15-.92.23-1.8.23-2.65,0-1-.21-2.21-.63-3.63-.42-1.42-.88-2.9-1.38-4.44-.5-1.54-.96-3.05-1.38-4.55-.42-1.5-.63-2.82-.63-3.97,0-3.69,1.07-6.55,3.23-8.58,2.15-2.03,5.3-3.05,9.45-3.05,1.77,0,3.49.37,5.18,1.09,1.69.73,3.17,1.67,4.44,2.82,1.27,1.15,2.28,2.48,3.05,3.97.77,1.5,1.15,3.05,1.15,4.67,0,2.23-.46,4.17-1.38,5.82-.92,1.65-2.19,3.21-3.8,4.67-1.08.92-2.34,1.79-3.8,2.59-1.46.81-3,1.61-4.61,2.42-1.61.81-3.23,1.65-4.84,2.53-1.61.88-3.15,1.9-4.61,3.05,3.38,2.84,7.08,5.9,11.12,9.16,4.03,3.27,8.12,6.36,12.27,9.27.31-.38.46-1.19.46-2.42,0-1.38-.13-2.88-.4-4.49-.27-1.61-.58-3.21-.92-4.78-.35-1.57-.65-3.01-.92-4.32-.27-1.3-.4-2.34-.4-3.11,0-4.3,1.11-7.41,3.34-9.33,2.23-1.92,5.07-2.88,8.52-2.88,2,0,3.8.37,5.42,1.09,1.61.73,3,1.67,4.15,2.82,1.15,1.15,2.05,2.44,2.71,3.86.65,1.42.98,2.78.98,4.09,0,3.46-1.08,6.39-3.23,8.81-2.15,2.42-5.88,4.74-11.17,6.97-2.61,1.08-4.47,1.94-5.59,2.59-1.11.65-1.83,1.21-2.13,1.67,3.23,2.15,5.95,3.92,8.18,5.3,2.23,1.38,4.42,2.57,6.57,3.57,1.15.54,2.3.9,3.46,1.09,1.15.19,2.03.29,2.65.29,1.92,0,3.67-.42,5.24-1.27,1.57-.85,2.36-2.42,2.36-4.72,0-.15.04-.25.12-.29.08-.04.15.02.23.17.15.46.23.88.23,1.27v1.04ZM22.23,25.23c-1-.08-2.09-.17-3.28-.29-1.19-.12-2.34-.25-3.46-.4-1.11-.15-2.17-.33-3.17-.52-1-.19-1.84-.36-2.53-.52v-.58c.61.08,1.38.19,2.3.35.92.15,1.92.31,3,.46,1.08.16,2.17.29,3.28.4,1.11.12,2.17.17,3.17.17l-4.38-5.99c-2-.15-4.01-.36-6.05-.63-2.04-.27-3.74-.59-5.13-.98l-.12-.81c1.15.31,2.76.62,4.84.92,2.07.31,4.03.54,5.88.69l-4.26-5.99-7.37-2.07v-.69l6.8,1.73c-.85-1.31-1.75-2.69-2.71-4.15-.96-1.46-1.67-2.65-2.13-3.57-1.08.62-2.04,1.46-2.88,2.53-.85,1.08-1.27,2.69-1.27,4.84,0,4.84,1.52,8.95,4.55,12.33,3.03,3.38,7.28,5.84,12.73,7.37,1.54.39,3.01.79,4.44,1.21,1.42.42,2.55.86,3.4,1.32l-5.65-7.14ZM28.8,32.03c-.31-1.3-.54-3.05-.69-5.24-.15-2.19-.4-4.55-.75-7.08-.35-2.53-.85-5.03-1.5-7.49-.65-2.46-1.67-4.57-3.05-6.34-1.31-1.69-2.59-2.96-3.86-3.8-1.27-.84-3.01-1.27-5.24-1.27-1,0-2.13.17-3.4.52-1.27.35-2.13.71-2.59,1.09,1.23,2.23,2.8,4.74,4.72,7.55,1.92,2.8,3.84,5.51,5.76,8.12,1.77,2.53,3.59,5.01,5.47,7.43,1.88,2.42,3.59,4.59,5.13,6.51ZM45.04,52.53c-.62.15-1.15.23-1.61.23h-1.15c-2.15,0-4.4-.36-6.74-1.09-2.34-.73-4.97-1.09-7.89-1.09-1.69,0-3.36.29-5.01.86-1.65.58-3.11,1.36-4.38,2.36-1.27,1-2.29,2.15-3.05,3.46-.77,1.31-1.15,2.65-1.15,4.03,0,.69.08,1.44.23,2.25.15.81.38,1.48.69,2.02,3.3-1.23,6.51-2.48,9.62-3.74,3.11-1.27,6.01-2.48,8.7-3.63,2.69-1.15,5.05-2.21,7.08-3.17,2.03-.96,3.59-1.79,4.67-2.48ZM39.17,56.33l-.35,5.99-.69.35.23-5.88-4.15,1.96-1.61,10.02h-.81l1.5-9.68-5.07,2.19-2.65,9.56h-.69l2.19-9.1-11.75,4.49c.92,1.77,2.19,3.23,3.8,4.38,1.61,1.15,3.69,1.73,6.22,1.73,1.77,0,3.59-.35,5.47-1.04,1.88-.69,3.59-1.69,5.13-3,.84-.69,1.67-1.67,2.48-2.94.81-1.27,1.59-2.61,2.36-4.03.77-1.42,1.52-2.84,2.25-4.26.73-1.42,1.48-2.67,2.25-3.74l-6.11,3ZM67.16,72.69c-.39.08-.85.12-1.38.12h-1.04c-.85,0-2.13-.13-3.86-.4-1.73-.27-3.13-.4-4.2-.4-1.84,0-3.65.37-5.42,1.09-1.77.73-3.32,1.65-4.67,2.76-1.34,1.11-2.42,2.34-3.23,3.69-.81,1.34-1.21,2.67-1.21,3.97,0,1.69.35,3.26,1.04,4.72,1.61-1,3.47-2.13,5.59-3.4,2.11-1.27,4.28-2.59,6.51-3.97,2.23-1.38,4.4-2.78,6.51-4.2,2.11-1.42,3.9-2.75,5.36-3.97ZM62.9,76.84l1.15,5.53-.34.46-1.5-5.53-3.46,2.3.35,9.68-.58.35-.58-9.56-4.61,3-1.27,9.1h-.58l1.15-8.76-8.99,5.41c.92,1.54,2.03,2.73,3.34,3.57,1.3.84,2.92,1.27,4.84,1.27,3.15,0,5.91-1.19,8.29-3.57,1.3-1.31,2.32-2.73,3.05-4.26.73-1.54,1.34-3.07,1.84-4.61.5-1.54,1-3.05,1.5-4.55.5-1.5,1.13-2.82,1.9-3.97l-5.53,4.15ZM62.32,20.04c-.46-.31-1.02-.56-1.67-.75-.65-.19-1.71-.29-3.17-.29s-2.84.37-4.15,1.09c-1.31.73-2.46,1.73-3.46,3-1,1.27-1.79,2.71-2.36,4.32-.58,1.61-.86,3.34-.86,5.18,0,1.69.12,3.15.35,4.38.23,1.23.5,2.36.81,3.4.31,1.04.58,2.04.81,3,.23.96.35,2.02.35,3.17,0,.39-.04.92-.12,1.61-.08.69-.27,1.31-.58,1.84l4.61-8.76-4.38-10.48.58-.23,4.26,9.91,2.3-5.07-3.8-10.83.46-.35,3.92,10.25,2.19-5.3-3.11-7.95.46-.35,3.23,7.37,3.34-8.18ZM67.39,28.34c0-2.61-.48-4.45-1.44-5.53-.96-1.07-1.94-1.88-2.94-2.42-.85,2.07-1.79,4.36-2.82,6.85-1.04,2.5-2.15,5.03-3.34,7.6-1.19,2.57-2.44,5.13-3.74,7.66-1.31,2.53-2.61,4.88-3.92,7.03,1.07-.77,2.07-1.38,3-1.84.92-.46,1.86-.96,2.82-1.5.96-.54,1.98-1.13,3.05-1.79,1.08-.65,2.3-1.56,3.69-2.71,1.38-1.15,2.67-2.86,3.86-5.13,1.19-2.26,1.79-5.01,1.79-8.24ZM85.02,40.2c-.92-.46-2.11-.69-3.57-.69-1.69,0-3.19.48-4.49,1.44-1.31.96-2.42,2.17-3.34,3.63-.92,1.46-1.61,3.05-2.07,4.78s-.69,3.36-.69,4.9c0,2.15.21,4.26.63,6.34.42,2.07.63,4.19.63,6.34,0,.39-.02.73-.06,1.04-.04.31-.06.58-.06.81.69-1.3,1.46-2.78,2.3-4.44.84-1.65,1.46-3.01,1.84-4.09l-3.8-9.1.46-.23,3.8,8.52,2.42-5.53-3.34-8.99.46-.46,3.46,8.52,2.07-5.18-2.65-5.99.46-.23,2.53,5.53,3-6.91ZM91.12,48.15c0-3.76-1.77-6.3-5.3-7.6-2,4.69-4.05,9.47-6.16,14.34-2.11,4.88-4.32,9.43-6.62,13.65,2-1.07,3.88-2,5.64-2.76,1.77-.77,3.61-1.88,5.53-3.34,2-1.54,3.65-3.63,4.95-6.28,1.3-2.65,1.96-5.32,1.96-8.01Z"/>
  </g>
</svg>